<svg id="Layer_1" data-name="Layer 1" xmlns="http://www.w3.org/2000/svg" viewBox="0 0 122.88 122.88"><defs><style>.cls-1{fill:#fff;}.cls-2{fill:#d92d27;}</style></defs><title>no-injection</title><path class="cls-1" d="M101.68,32.93,32.92,101.68a49.29,49.29,0,0,0,77.83-40.24h0a49.12,49.12,0,0,0-9.08-28.51ZM24,93.5,93.49,24A49.31,49.31,0,0,0,24,93.5Z"/><path d="M70.36,53.55l-7.82,4.52a1.36,1.36,0,1,0,1.36,2.36l7.82-4.52,1.86,3.23-7.82,4.51A1.36,1.36,0,1,0,67.12,66l7.82-4.51,1.86,3.22L69,69.24a1.36,1.36,0,1,0,1.36,2.36l7.82-4.52L80,70.3,72.2,74.82a1.36,1.36,0,0,0,1.37,2.36l7.81-4.52.32.55h0a6.17,6.17,0,0,1-2.26,8.42h0L77.26,82.9a1.2,1.2,0,0,0-.48.17,1.5,1.5,0,0,0-.38.32l-2.6,1.5h0a5.4,5.4,0,0,1-7.35-2h0L52.06,58,67.7,49l2.66,4.58Zm-3-7.59-1.6.93-5.18-9a5.64,5.64,0,0,0,2.32-3.25,5.73,5.73,0,0,0-.56-4.34h0a5.75,5.75,0,0,0-3.48-2.66,5.69,5.69,0,0,0-4.34.57L40.83,36.13a5.67,5.67,0,0,0-2.65,3.48h0a5.69,5.69,0,0,0,.57,4.34h0a5.73,5.73,0,0,0,3.47,2.66A5.62,5.62,0,0,0,46,46.33l5.19,9-1.5.86a1.21,1.21,0,0,0-.3.25L46,58.36a1.36,1.36,0,0,0,1.36,2.36L50,59.19,64.39,84.11h0A7.78,7.78,0,0,0,75,87h0l1.84-1.07L82,94.73a1.36,1.36,0,1,0,2.36-1.36L79.2,84.53l1.44-.83h0A8.58,8.58,0,0,0,83.77,72h0l-14-24.24,2.37-1.37a1.36,1.36,0,0,0-1.36-2.36l-3.07,1.77a1.4,1.4,0,0,0-.37.14Zm-25-7.17L56,30.89a2.66,2.66,0,0,1,3.62,1h0a2.68,2.68,0,0,1,.26,2,2.64,2.64,0,0,1-1.23,1.61h0L45,43.38a2.68,2.68,0,0,1-2,.26,2.64,2.64,0,0,1-1.61-1.23h0a2.6,2.6,0,0,1-.26-2h0a2.6,2.6,0,0,1,1.23-1.61Zm6.32,6.13L58,39.56l4.91,8.52-9.29,5.36-4.91-8.52Z"/><path class="cls-2" d="M61.44,0A61.31,61.31,0,1,1,38,4.66,61.29,61.29,0,0,1,61.44,0Zm40.24,32.93L32.93,101.68A49.44,49.44,0,0,0,80.31,107,49.53,49.53,0,0,0,107,80.3a49,49,0,0,0,3.73-18.86h0a48.93,48.93,0,0,0-9.08-28.51ZM24,93.5,93.5,24A49.32,49.32,0,0,0,24,93.5Z"/></svg>