<svg width="14" height="13" viewBox="0 0 14 13" fill="none" xmlns="http://www.w3.org/2000/svg" >
        <path d="M2.625 5C2.66146 3.76042 3.08984 2.73047 3.91016 1.91016C4.73047 1.08984 5.76042 0.661458 7 0.625C8.23958 0.661458 9.26953 1.08984 10.0898 1.91016C10.9102 2.73047 11.3385 3.76042 11.375 5V9.375H2.625V5ZM7 2.8125C7.27344 2.79427 7.41927 2.64844 7.4375 2.375C7.41927 2.10156 7.27344 1.95573 7 1.9375C6.125 1.95573 5.40495 2.25651 4.83984 2.83984C4.25651 3.40495 3.95573 4.125 3.9375 5C3.95573 5.27344 4.10156 5.41927 4.375 5.4375C4.64844 5.41927 4.79427 5.27344 4.8125 5C4.83073 4.38021 5.04036 3.86068 5.44141 3.44141C5.86068 3.04036 6.38021 2.83073 7 2.8125ZM1.75 10.25H12.25C12.5052 10.25 12.7148 10.332 12.8789 10.4961C13.043 10.6602 13.125 10.8698 13.125 11.125V12C13.125 12.2552 13.043 12.4648 12.8789 12.6289C12.7148 12.793 12.5052 12.875 12.25 12.875H1.75C1.49479 12.875 1.28516 12.793 1.12109 12.6289C0.957031 12.4648 0.875 12.2552 0.875 12V11.125C0.875 10.8698 0.957031 10.6602 1.12109 10.4961C1.28516 10.332 1.49479 10.25 1.75 10.25Z" fill="white"/>
</svg>