<svg width="16" height="15" viewBox="0 0 16 15" fill="none" xmlns="http://www.w3.org/2000/svg">
    <path d="M15.875 7.75C15.8568 7.98698 15.7656 8.1875 15.6016 8.35156C15.4375 8.51562 15.237 8.60677 15 8.625H14.125L14.1523 13C14.1341 13.0729 14.125 13.1458 14.125 13.2188V13.6562C14.125 13.9661 14.0156 14.2214 13.7969 14.4219C13.5964 14.6406 13.3411 14.75 13.0312 14.75H12.5938C12.5573 14.75 12.5299 14.75 12.5117 14.75C12.4753 14.75 12.4388 14.75 12.4023 14.75H11.5H10.8438C10.5339 14.75 10.2786 14.6406 10.0781 14.4219C9.85938 14.2214 9.75 13.9661 9.75 13.6562V13V11.25C9.75 10.9948 9.66797 10.7852 9.50391 10.6211C9.33984 10.457 9.13021 10.375 8.875 10.375H7.125C6.86979 10.375 6.66016 10.457 6.49609 10.6211C6.33203 10.7852 6.25 10.9948 6.25 11.25V13V13.6562C6.25 13.9661 6.14062 14.2214 5.92188 14.4219C5.72135 14.6406 5.46615 14.75 5.15625 14.75H4.5H3.625C3.60677 14.75 3.58854 14.75 3.57031 14.75C3.55208 14.75 3.53385 14.75 3.51562 14.75C3.47917 14.75 3.44271 14.75 3.40625 14.75H2.96875C2.65885 14.75 2.40365 14.6406 2.20312 14.4219C1.98438 14.2214 1.875 13.9661 1.875 13.6562V10.5938C1.875 10.5755 1.875 10.5482 1.875 10.5117V8.625H1C0.744792 8.60677 0.535156 8.51562 0.371094 8.35156C0.207031 8.1875 0.125 7.98698 0.125 7.75C0.125 7.49479 0.216146 7.27604 0.398438 7.09375L7.39844 0.96875C7.59896 0.804688 7.79948 0.731771 8 0.75C8.21875 0.75 8.41016 0.813802 8.57422 0.941406L15.5742 7.09375C15.793 7.27604 15.8932 7.49479 15.875 7.75Z" fill="#326B70"/>
</svg>