<svg width="20" height="20" viewBox="0 0 20 20" fill="none" xmlns="http://www.w3.org/2000/svg" >
    <path d="M17.875 9.75C17.8568 9.98698 17.7656 10.1875 17.6016 10.3516C17.4375 10.5156 17.237 10.6068 17 10.625H16.125L16.1523 15C16.1341 15.0729 16.125 15.1458 16.125 15.2188V15.6562C16.125 15.9661 16.0156 16.2214 15.7969 16.4219C15.5964 16.6406 15.3411 16.75 15.0312 16.75H14.5938C14.5573 16.75 14.5299 16.75 14.5117 16.75C14.4753 16.75 14.4388 16.75 14.4023 16.75H13.5H12.8438C12.5339 16.75 12.2786 16.6406 12.0781 16.4219C11.8594 16.2214 11.75 15.9661 11.75 15.6562V15V13.25C11.75 12.9948 11.668 12.7852 11.5039 12.6211C11.3398 12.457 11.1302 12.375 10.875 12.375H9.125C8.86979 12.375 8.66016 12.457 8.49609 12.6211C8.33203 12.7852 8.25 12.9948 8.25 13.25V15V15.6562C8.25 15.9661 8.14062 16.2214 7.92188 16.4219C7.72135 16.6406 7.46615 16.75 7.15625 16.75H6.5H5.625C5.60677 16.75 5.58854 16.75 5.57031 16.75C5.55208 16.75 5.53385 16.75 5.51562 16.75C5.47917 16.75 5.44271 16.75 5.40625 16.75H4.96875C4.65885 16.75 4.40365 16.6406 4.20312 16.4219C3.98438 16.2214 3.875 15.9661 3.875 15.6562V12.5938C3.875 12.5755 3.875 12.5482 3.875 12.5117V10.625H3C2.74479 10.6068 2.53516 10.5156 2.37109 10.3516C2.20703 10.1875 2.125 9.98698 2.125 9.75C2.125 9.49479 2.21615 9.27604 2.39844 9.09375L9.39844 2.96875C9.59896 2.80469 9.79948 2.73177 10 2.75C10.2188 2.75 10.4102 2.8138 10.5742 2.94141L17.5742 9.09375C17.793 9.27604 17.8932 9.49479 17.875 9.75Z" fill="white"/>
</svg>