<svg width="89" height="88" viewBox="0 0 89 88" fill="none" xmlns="http://www.w3.org/2000/svg">
      <mask id="mask0_3_441" style="mask-type: alpha" maskUnits="userSpaceOnUse" x="0" y="0" width="89" height="88">
        <path
          d="M44.5 88C68.8005 88 88.5 68.3005 88.5 44C88.5 19.6995 68.8005 0 44.5 0C20.1995 0 0.5 19.6995 0.5 44C0.5 68.3005 20.1995 88 44.5 88Z"
          fill="url(#paint0_linear_3_441)" />
      </mask>
      <g mask="url(#mask0_3_441)">
        <path
          d="M44.5 88C68.8005 88 88.5 68.3005 88.5 44C88.5 19.6995 68.8005 0 44.5 0C20.1995 0 0.5 19.6995 0.5 44C0.5 68.3005 20.1995 88 44.5 88Z"
          fill="white" />
        <path
          d="M70.9 88.0011H18.1V32.999C18.1 31.9468 18.961 31.113 19.9914 30.9C21.7748 30.5314 23.4273 29.6491 24.7343 28.3421C26.0413 27.035 26.9236 25.3826 27.2922 23.5991C27.5052 22.5687 28.339 21.7078 29.3912 21.7078H59.6026C60.6572 21.7078 61.492 22.5726 61.7044 23.6056C61.8234 24.1844 61.9974 24.7519 62.225 25.3004C62.6973 26.4391 63.3909 27.4728 64.2654 28.3418C65.1343 29.2166 66.1681 29.9103 67.3069 30.3828C67.8555 30.6104 68.4231 30.7845 69.002 30.9035C70.0351 31.1159 70.9 31.9507 70.9 33.0053V88.0011Z"
          fill="#ADC4C6" />
        <path opacity="0.4"
          d="M44.5 63C53.3366 63 60.5 55.8366 60.5 47C60.5 38.1634 53.3366 31 44.5 31C35.6634 31 28.5 38.1634 28.5 47C28.5 55.8366 35.6634 63 44.5 63Z"
          fill="white" />
        <path
          d="M43.7665 52.8012C47.0065 52.8012 49.6331 50.1746 49.6331 46.9345C49.6331 43.6945 47.0065 41.0679 43.7665 41.0679C40.5264 41.0679 37.8998 43.6945 37.8998 46.9345C37.8998 50.1746 40.5264 52.8012 43.7665 52.8012Z"
          stroke="#326B70" stroke-width="1.22222" stroke-linecap="round" stroke-linejoin="round" />
        <path d="M51.0999 54.2654L47.9099 51.0754" stroke="#326B70" stroke-width="1.22222" stroke-linecap="round"
          stroke-linejoin="round" />
        <rect opacity="0.4" x="35.1135" y="68.6426" width="18.7733" height="1.17333" rx="0.586667" fill="white" />
        <rect opacity="0.4" x="33.3534" y="75.0923" width="22.2933" height="1.17333" rx="0.586667" fill="white" />
      </g>
      <defs>
        <linearGradient id="paint0_linear_3_441" x1="44.5" y1="0" x2="44.5" y2="88" gradientUnits="userSpaceOnUse">
          <stop stop-color="#E3ECFA" />
          <stop offset="1" stop-color="#DAE7FF" />
        </linearGradient>
      </defs>
    </svg>