<svg width="221" height="200" viewBox="0 0 221 200" fill="none" xmlns="http://www.w3.org/2000/svg" class="mb-4">
    <path fill-rule="evenodd" clip-rule="evenodd" d="M210.225 100.322C210.225 154.222 166.53 197.916 112.631 197.916C58.7306 197.916 15.036 154.222 15.036 100.322C15.036 46.4221 58.7306 2.72754 112.631 2.72754C166.53 2.72754 210.225 46.4221 210.225 100.322C210.225 154.222 210.225 100.322 210.225 100.322Z" fill="white"/>
    <path fill-rule="evenodd" clip-rule="evenodd" d="M69.1966 106.582H65.9566V111.574C65.9566 113.807 65.3436 115.471 64.1177 116.653C62.8917 117.835 61.2717 118.404 59.3015 118.404C57.3312 118.404 55.7112 117.835 54.4852 116.653C53.2593 115.471 52.6463 113.807 52.6463 111.574V106.582H31.4549C29.6597 106.582 28.2148 106.057 27.164 104.962C26.1132 103.868 25.5878 102.51 25.5878 100.89C25.5878 99.2705 26.157 97.6067 27.2516 95.9867L53.3031 58.7703C54.0036 57.7632 54.8793 57.0189 55.9301 56.5373C56.9809 56.0557 58.0755 55.793 59.2577 55.793C61.0528 55.793 62.629 56.4059 63.9863 57.5881C65.3436 58.7703 66.0004 60.4341 66.0004 62.5357V96.1618H69.2404C73.4437 96.2056 75.5891 97.9132 75.5891 101.328C75.5891 104.831 73.4437 106.582 69.1966 106.582ZM52.6901 76.9844L39.336 96.2056H52.6901V76.9844Z" fill="#326B70"/>
    <path fill-rule="evenodd" clip-rule="evenodd" d="M188.245 106.582H185.005V111.574C185.005 113.807 184.392 115.471 183.166 116.653C181.94 117.835 180.32 118.404 178.35 118.404C176.38 118.404 174.76 117.835 173.534 116.653C172.308 115.471 171.695 113.807 171.695 111.574V106.582H150.46C148.665 106.582 147.22 106.057 146.169 104.962C145.118 103.868 144.593 102.51 144.593 100.89C144.593 99.2705 145.162 97.6067 146.256 95.9867L172.308 58.7703C173.008 57.7632 173.884 57.0189 174.935 56.5373C175.986 56.0557 177.08 55.793 178.262 55.793C180.058 55.793 181.634 56.4059 182.991 57.5881C184.348 58.7703 185.005 60.4341 185.005 62.5357V96.1618H188.245C192.492 96.2056 194.638 97.9132 194.638 101.328C194.638 104.831 192.492 106.582 188.245 106.582ZM171.739 76.9844L158.385 96.2056H171.739V76.9844Z" fill="#326B70"/>
    <path opacity="0.5" fill-rule="evenodd" clip-rule="evenodd" d="M136.711 85.1728C136.711 100.117 124.597 112.231 109.653 112.231C94.7087 112.231 82.5942 100.117 82.5942 85.1728C82.5942 70.2288 94.7087 58.1143 109.653 58.1143C124.597 58.1143 136.711 70.2288 136.711 85.1728C136.711 100.117 136.711 85.1728 136.711 85.1728Z" fill="#70979B"/>
    <path d="M94.8981 99.8834C93.5846 98.5699 93.5846 96.4245 94.8981 95.1109L119.592 70.4168C120.906 69.1033 123.051 69.1033 124.365 70.4168C125.678 71.7303 125.678 73.8757 124.365 75.1892L99.7144 99.9272C99.0576 100.584 98.1819 100.89 97.3063 100.89C96.4306 100.89 95.5987 100.54 94.8981 99.8834Z" fill="#326B70"/>
    <path d="M34.6513 123.877C35.5707 116.346 40.2556 112.668 40.4745 112.493L41.8756 114.332L41.1751 113.413L41.8756 114.332C41.8318 114.376 37.7161 117.66 36.928 124.183C36.0961 131.276 39.2924 139.42 46.4729 148.396L44.6778 149.885C37.1032 140.384 33.7318 131.627 34.6513 123.877Z" fill="#BEC9DB"/>
    <path d="M42.0505 114.816L43.5391 113.896C44.2834 113.415 44.4586 112.408 43.9332 111.707L43.758 111.488C43.2326 110.831 42.2256 110.744 41.6126 111.313L40.2991 112.495C39.5986 113.021 39.5986 114.115 40.2991 114.684C40.7807 115.122 41.5251 115.166 42.0505 114.816Z" fill="#102C56"/>
    <path d="M60.8337 150.761C70.4662 144.5 76.0705 137.757 77.5154 130.708C78.8289 124.228 75.983 119.893 75.9392 119.85L77.8657 118.536C77.997 118.755 81.3246 123.746 79.7922 131.146C78.216 138.852 72.2613 146.076 62.1035 152.731L60.8337 150.761Z" fill="#BEC9DB"/>
    <path d="M75.6764 120.243L74.5381 118.886C73.9689 118.185 74.144 117.178 74.8883 116.653L75.151 116.478C75.8516 115.996 76.8586 116.259 77.2527 117.003L78.1283 118.536C78.5662 119.324 78.2159 120.331 77.384 120.681C76.771 120.944 76.0705 120.769 75.6764 120.243Z" fill="#102C56"/>
    <path fill-rule="evenodd" clip-rule="evenodd" d="M127.032 123.463C131.504 124.883 133.977 129.659 132.557 134.13C131.137 138.601 126.361 141.074 121.89 139.654C117.419 138.234 114.946 133.458 116.366 128.987C117.786 124.516 122.561 122.043 127.032 123.463C131.504 124.883 127.032 123.463 127.032 123.463Z" fill="#BEC9DB"/>
    <path d="M85.7029 146.558L69.4152 169.632C67.0947 172.916 62.8476 174.186 59.0822 172.697C55.4919 171.296 53.3027 167.749 53.6092 163.94L53.8719 160.262C55.5357 160.219 57.1995 159.781 58.6444 158.905C58.9071 158.73 59.1698 158.599 59.4325 158.423C61.5779 156.891 62.979 154.614 63.3731 152.031C63.5044 151.155 62.8914 150.323 62.0158 150.148C61.1401 150.017 60.3082 150.63 60.133 151.506C59.8703 153.257 58.9071 154.746 57.506 155.796C56.1049 156.803 54.3536 157.241 52.6022 156.935C49.0119 156.366 46.6038 152.994 47.173 149.404C47.3043 148.528 46.6914 147.696 45.8157 147.521C44.94 147.39 44.1081 148.003 43.933 148.879C43.1449 153.739 46.0784 158.292 50.5881 159.781L50.2816 163.721C49.8876 168.975 52.9087 173.792 57.8125 175.762C61.359 177.163 65.212 176.769 68.3206 174.93C69.7655 174.098 71.0353 172.916 72.0423 171.515L88.3299 148.441C95.4667 138.37 107.069 132.722 119.417 133.423C120.336 133.467 121.08 132.766 121.124 131.89C121.212 131.015 120.555 130.227 119.635 130.183C106.194 129.439 93.4964 135.568 85.7029 146.558Z" fill="#102C56"/>
    <path fill-rule="evenodd" clip-rule="evenodd" d="M130.144 131.572C130.15 134.716 127.606 137.269 124.462 137.275C121.319 137.281 118.766 134.737 118.76 131.593C118.754 128.45 121.298 125.897 124.442 125.891C127.585 125.885 130.138 128.429 130.144 131.572C130.15 134.716 130.144 131.572 130.144 131.572Z" fill="white"/>
    <path d="M219.682 132.109C219.682 132.109 207.904 144.281 198.928 148.747C189.952 153.213 183.866 153.388 183.866 153.388L154.838 144.806C154.838 144.763 175.547 140.691 191.966 125.936L219.682 132.109Z" fill="#ADC4C6"/>
    <path d="M219.638 132.065C219.638 132.065 207.247 143.361 197.79 147.17C188.333 151.023 181.984 150.76 181.984 150.76L151.642 140.34C151.642 140.383 173.358 137.713 190.653 124.14L219.638 132.065Z" fill="#EAF0F1"/>
    <path d="M140.433 38.6741L153.7 43.9282C156.677 45.1104 158.122 48.4818 156.94 51.4591C155.758 54.4364 152.386 55.8812 149.409 54.6991L136.142 49.445C133.165 48.219 131.72 44.8477 132.902 41.9142C134.084 38.9368 137.456 37.492 140.433 38.6741Z" fill="#326B70"/>
    <path d="M153.656 43.8847L144.943 40.4258C147.92 41.6079 149.365 44.9793 148.183 47.9566C147.001 50.9339 143.629 52.3788 140.652 51.1966L149.365 54.6556C152.343 55.8377 155.714 54.3929 156.896 51.4156C158.078 48.4382 156.633 45.0669 153.656 43.8847Z" fill="#BEC9DB"/>
    <path d="M15.3857 114.333L25.5436 129.921C27.8204 133.423 26.8571 138.108 23.3544 140.385C19.8517 142.662 15.1668 141.698 12.8901 138.196L2.73218 122.565C0.455412 119.106 1.41866 114.421 4.92138 112.144C8.42409 109.868 13.109 110.831 15.3857 114.333Z" fill="#326B70"/>
    <path d="M25.5437 129.877L18.8886 119.676C21.1653 123.178 20.2021 127.863 16.6994 130.14C13.1967 132.417 8.51177 131.454 6.235 127.951L12.8902 138.153C15.1669 141.655 19.8518 142.619 23.3545 140.342C26.8572 138.065 27.8205 133.38 25.5437 129.877Z" fill="#BEC9DB"/>
    <path d="M94.4266 27.827C94.2077 27.8708 93.9888 27.6957 93.945 27.433L93.332 21.3032C93.2883 21.0843 93.1131 20.9092 92.8504 20.9092L87.2899 21.4784C87.0709 21.5221 86.8958 21.6973 86.8958 21.96L87.5088 28.0897C87.5526 28.3087 87.3774 28.5276 87.1147 28.5714L80.985 29.1843C80.766 29.2281 80.5909 29.4033 80.5909 29.666L81.1601 35.2265C81.2039 35.4455 81.379 35.6206 81.6417 35.6206L87.7715 35.0076C87.9904 34.9638 88.2093 35.139 88.2531 35.4017L88.8661 41.5314C88.9099 41.7504 89.085 41.9255 89.3477 41.9255L94.9083 41.3563C95.1272 41.3125 95.3023 41.1374 95.3023 40.8747L94.6893 34.7449C94.6456 34.526 94.8207 34.3071 95.0834 34.2633L101.213 33.6503C101.432 33.6065 101.607 33.4314 101.607 33.1687L101.038 27.6081C100.994 27.3454 100.775 27.1703 100.556 27.2141L94.4266 27.827Z" fill="#EAF0F1"/>
    <path fill-rule="evenodd" clip-rule="evenodd" d="M116.738 165.577C118.492 166.649 119.045 168.94 117.974 170.694C116.902 172.447 114.611 173 112.858 171.929C111.104 170.857 110.551 168.566 111.622 166.813C112.694 165.059 114.985 164.506 116.738 165.577C118.492 166.649 116.738 165.577 116.738 165.577Z" fill="#EAF0F1"/>
    <path d="M150.525 174.585L156.217 168.981C157.311 167.886 159.107 167.93 160.157 169.025C161.252 170.119 161.208 171.915 160.114 172.965L154.422 178.57C153.371 179.621 151.576 179.621 150.481 178.526C149.387 177.431 149.43 175.636 150.525 174.585Z" fill="#EAF0F1"/>
</svg>