<svg width="7" height="11" viewBox="0 0 7 11" fill="none" xmlns="http://www.w3.org/2000/svg">
    <path d="M6.25391 5.12109C6.41797 5.30339 6.5 5.51302 6.5 5.75C6.5 5.98698 6.41797 6.19661 6.25391 6.37891L1.87891 10.7539C1.69661 10.918 1.48698 11 1.25 11C1.01302 11 0.803385 10.918 0.621094 10.7539C0.457031 10.5716 0.375 10.362 0.375 10.125C0.375 9.88802 0.457031 9.67839 0.621094 9.49609L4.39453 5.75L0.621094 2.00391C0.457031 1.82161 0.375 1.61198 0.375 1.375C0.375 1.13802 0.457031 0.928385 0.621094 0.746094C0.803385 0.582031 1.01302 0.5 1.25 0.5C1.48698 0.5 1.69661 0.582031 1.87891 0.746094L6.25391 5.12109Z" fill="#9AA1BC"/>
</svg>