<svg width="7" height="11" viewBox="0 0 7 11" fill="none" xmlns="http://www.w3.org/2000/svg">
    <path d="M0.746094 5.12109L5.12109 0.746094C5.30339 0.582031 5.51302 0.5 5.75 0.5C5.98698 0.5 6.19661 0.582031 6.37891 0.746094C6.54297 0.928385 6.625 1.13802 6.625 1.375C6.625 1.61198 6.54297 1.82161 6.37891 2.00391L2.60547 5.75L6.37891 9.49609C6.54297 9.67839 6.625 9.88802 6.625 10.125C6.625 10.362 6.54297 10.5716 6.37891 10.7539C6.19661 10.918 5.98698 11 5.75 11C5.51302 11 5.30339 10.918 5.12109 10.7539L0.746094 6.37891C0.582031 6.19661 0.5 5.98698 0.5 5.75C0.5 5.51302 0.582031 5.30339 0.746094 5.12109Z" fill="#9AA1BC"/>
</svg>