<svg width="14" height="15" viewBox="0 0 14 15" fill="none" xmlns="http://www.w3.org/2000/svg" >
    <path d="M7 7.75C6.36198 7.75 5.77865 7.59505 5.25 7.28516C4.72135 6.97526 4.29297 6.54688 3.96484 6C3.65495 5.45312 3.5 4.86979 3.5 4.25C3.5 3.63021 3.65495 3.04688 3.96484 2.5C4.29297 1.95312 4.72135 1.52474 5.25 1.21484C5.77865 0.904948 6.36198 0.75 7 0.75C7.63802 0.75 8.22135 0.904948 8.75 1.21484C9.27865 1.52474 9.70703 1.95312 10.0352 2.5C10.3451 3.04688 10.5 3.63021 10.5 4.25C10.5 4.86979 10.3451 5.45312 10.0352 6C9.70703 6.54688 9.27865 6.97526 8.75 7.28516C8.22135 7.59505 7.63802 7.75 7 7.75ZM5.74219 9.0625H8.25781C9.625 9.09896 10.7734 9.57292 11.7031 10.4844C12.6146 11.4141 13.0885 12.5625 13.125 13.9297C13.125 14.1667 13.043 14.3581 12.8789 14.5039C12.7331 14.668 12.5417 14.75 12.3047 14.75H1.69531C1.45833 14.75 1.26693 14.668 1.12109 14.5039C0.957031 14.3581 0.875 14.1667 0.875 13.9297C0.911458 12.5625 1.38542 11.4141 2.29688 10.4844C3.22656 9.57292 4.375 9.09896 5.74219 9.0625Z" fill="#326B70"/>
</svg>