
<svg width="13" height="13" viewBox="0 0 10 10" fill="none" xmlns="http://www.w3.org/2000/svg">
    <path d="M9.10156 7.64844C9.45703 7.97656 9.45703 8.55078 9.10156 8.87891C8.9375 9.04297 8.71875 9.125 8.5 9.125C8.25391 9.125 8.03516 9.04297 7.87109 8.87891L5 6.00781L2.10156 8.87891C1.9375 9.04297 1.71875 9.125 1.5 9.125C1.25391 9.125 1.03516 9.04297 0.871094 8.87891C0.515625 8.55078 0.515625 7.97656 0.871094 7.64844L3.74219 4.75L0.871094 1.87891C0.515625 1.55078 0.515625 0.976562 0.871094 0.648438C1.19922 0.292969 1.77344 0.292969 2.10156 0.648438L5 3.51953L7.87109 0.648438C8.19922 0.292969 8.77344 0.292969 9.10156 0.648438C9.45703 0.976562 9.45703 1.55078 9.10156 1.87891L6.23047 4.77734L9.10156 7.64844Z" fill="#FA4A55"/>
</svg>