<svg xmlns="http://www.w3.org/2000/svg" shape-rendering="geometricPrecision" text-rendering="geometricPrecision" image-rendering="optimizeQuality" fill-rule="evenodd" clip-rule="evenodd" viewBox="0 0 493 511.498"><path fill-rule="nonzero" d="M338.572 161.74H466.57c14.513 0 26.43 11.917 26.43 26.43v25.32c0 14.534-11.913 26.43-26.43 26.43h-5.474c16.069 21.53 30.367 41.619 29.991 71.028 0 58.451.029 108.403.029 166.856 0 24.995-10.216 33.694-36.285 33.694H349.964c-20.276 0-35.731-4.732-35.731-28.534V317.383c-2.091-33.283 12.052-53.617 29.699-77.463h-5.36c-14.551 0-26.43-11.878-26.43-26.43v-25.32c0-14.536 11.896-26.43 26.43-26.43zM78.02 355.664L7.596 285.24C2.534 280.178 0 273.515 0 266.859c0-6.655 2.534-13.317 7.596-18.379l8.406-8.406c5.061-5.062 11.723-7.596 18.378-7.596 6.657 0 13.319 2.534 18.381 7.596l1.982 1.983 33.465-33.462c.212-.213.432-.409.657-.594l-6.94-6.941a8.702 8.702 0 01-.733-.833L65.92 184.955a4.968 4.968 0 010-7.023 4.968 4.968 0 017.023 0l9.908 9.908L197.459 73.232c9.645-9.646 22.353-14.469 35.051-14.469 8.639 0 17.284 2.235 24.964 6.7a8.7 8.7 0 01.446-.481l10.507-10.505c9.572-9.572 24.443-10.845 35.458-3.884L352.66 1.818a6.21 6.21 0 018.782 8.781l-48.771 48.772c6.957 11.005 5.665 25.909-3.888 35.462l-10.351 10.351c5.252 7.665 7.879 16.618 7.879 25.566 0 11.577-4.4 23.169-13.196 31.964L175.42 280.409l9.908 9.908a4.968 4.968 0 010 7.023 4.968 4.968 0 01-7.023 0l-15.273-15.273a8.641 8.641 0 01-.833-.732l-6.94-6.94a9.326 9.326 0 01-.593.657l-33.463 33.464 1.982 1.983c5.062 5.062 7.594 11.724 7.594 18.38 0 6.653-2.532 13.317-7.594 18.379l-8.405 8.406-.037.002a25.88 25.88 0 01-18.342 7.594c-7.374 0-13.022-2.712-18.381-7.596z"/><path fill="#CCC" d="M60.891 248.204l54.165 54.165 33.462-33.464-54.163-54.163-33.464 33.462zm203.87-177.772l28.065 28.066 9.811-9.811c7.71-7.709 7.717-20.346 0-28.065-7.719-7.717-20.347-7.715-28.065 0l-9.811 9.81z"/><path fill="#23AAE2" d="M88.073 194.913l80.274 80.274 118.621-118.621c14.196-14.196 14.196-37.436 0-51.633l-25.554-25.554c-15.893-15.893-41.911-15.897-57.808 0l-7.138 7.139 34.96 34.958-8.781 8.782-34.961-34.959-16.535 16.536 34.96 34.96-8.781 8.782-34.961-34.961-16.535 16.536 34.96 34.961-8.782 8.781-34.96-34.961-16.535 16.536 34.96 34.96-8.781 8.782-34.961-34.96-23.662 23.662zm-74.33 84.179l70.425 70.425c6.73 6.729 17.737 6.729 24.464 0l8.406-8.406c6.73-6.73 6.73-17.735 0-24.465l-70.424-70.424c-6.73-6.73-17.735-6.73-24.465 0l-8.406 8.405c-6.729 6.73-6.729 17.735 0 24.465z"/><path fill="#fff" d="M324.952 299.621c3.427-23.221 18.306-41.228 31.962-59.485h91.35c13.68 18.167 28.86 36.551 32.173 59.485H324.952zm155.49 173.671c.049 7.578.884 17.351-4.82 23.169-3.768 3.035-8.732 4.603-14.808 4.813l-117.392-.347c-6.198-.02-10.603-1.707-13.464-4.489-5.829-5.676-5.131-15.664-5.018-23.146h155.502z"/><path fill="#23AAE2" d="M324.952 299.652h155.485v173.64H324.952v-173.64zm13.62-128.961H466.57c9.615 0 17.479 7.866 17.479 17.479v25.32c0 9.613-7.866 17.479-17.479 17.479H338.572c-9.613 0-17.479-7.866-17.479-17.479v-25.32c0-9.615 7.864-17.479 17.479-17.479z"/><path fill="#CF2800" d="M402.691 326.28c33.217 0 60.144 26.927 60.144 60.144 0 33.218-26.927 60.145-60.144 60.145-33.218 0-60.145-26.927-60.145-60.145 0-33.217 26.927-60.144 60.145-60.144z"/><path fill="#fff" d="M396.126 351.377h13.125a4.474 4.474 0 014.46 4.461v19.564h19.565a4.475 4.475 0 014.461 4.461v13.125a4.475 4.475 0 01-4.461 4.46h-19.565v19.565a4.473 4.473 0 01-4.46 4.46h-13.125a4.474 4.474 0 01-4.461-4.46v-19.565h-19.559a4.474 4.474 0 01-4.46-4.46v-13.131a4.475 4.475 0 014.46-4.461h19.565v-19.558c0-2.453 2.002-4.461 4.455-4.461z"/><path fill="#23AAE2" d="M370.917 13.185c.257 32.155 17.525 45.498 17.525 58.84 0 13.344-5.661 26.686-23.016 26.686-17.353 0-22.996-13.344-22.996-26.686 0-5.008 23.728-54.08 28.487-58.84z"/></svg>