<svg width="1440" height="450" viewBox="0 0 1440 450" fill="none" xmlns="http://www.w3.org/2000/svg">
<mask id="mask0_301_6684" style="mask-type:alpha" maskUnits="userSpaceOnUse" x="0" y="0" width="1440" height="450">
<path d="M0 0H1440V344.681C1440 344.681 1004.44 450 720 450C435.56 450 0 344.681 0 344.681V0Z" fill="#D9D9D9"/>
</mask>
<g mask="url(#mask0_301_6684)">
<path d="M0 0H1440V344.681C1440 344.681 1004.44 450 720 450C435.56 450 0 344.681 0 344.681V0Z" fill="white"/>
<mask id="mask1_301_6684" style="mask-type:alpha" maskUnits="userSpaceOnUse" x="0" y="0" width="1440" height="981">
<rect width="1440" height="980.426" fill="url(#paint0_linear_301_6684)"/>
</mask>
<g mask="url(#mask1_301_6684)">
<rect width="1440" height="980.426" fill="url(#paint1_linear_301_6684)"/>
<path opacity="0.06" d="M1441.64 830.368C1346.94 835.442 1252.54 808.729 1154.64 828.836C1098.74 838.889 1046.24 848.942 991.944 845.017C980.144 844.251 968.144 843.197 956.244 841.57C944.344 840.038 932.344 838.027 920.444 835.538C881.944 825.485 836.544 805.378 808.544 771.963C770.044 721.793 829.544 678.229 861.144 645.293C866.244 639.261 870.844 632.942 874.444 626.144C878.044 619.442 880.644 612.261 881.744 604.506C884.744 583.634 876.244 562.953 871.944 542.272C859.244 480.804 894.744 406.985 958.744 395.783C978.944 392.24 1000.24 394.825 1019.54 388.219C1072.14 370.027 1084.54 293.527 1138.34 278.974C1175.44 268.921 1212.34 294.006 1240.34 319.378C1268.44 344.751 1299.04 373.953 1337.54 374.24C1374.84 374.527 1415.34 354.421 1442.04 328.953C1442.04 328.953 1442.04 638.591 1442.04 771.293C1442.04 783.357 1442.04 793.985 1441.94 802.697C1441.84 820.123 1441.64 830.368 1441.64 830.368Z" fill="#326B70"/>
<path opacity="0.06" d="M65.7453 -265.462C102.476 -181.736 168.918 -112.196 192.938 -19.1288C207.993 33.3862 221.558 82.9749 249.036 127.988C254.925 137.808 261.172 147.674 267.915 157.202C274.567 166.773 281.713 176.22 289.264 185.37C315.572 214.1 354.341 244.363 397.981 253.82C461.953 264.972 476.782 194.675 493.857 153.048C497.286 146.015 501.203 139.288 506.008 133.211C510.723 127.176 516.325 121.792 523.124 117.447C541.405 105.719 564.546 103.973 585.846 98.6121C649.12 82.609 702.87 19.7111 685.344 -40.2785C679.819 -59.2157 668.059 -76.4147 665.805 -95.9198C659.836 -149.16 726.224 -193.352 716.314 -246.032C709.497 -282.366 669.777 -303.133 633.688 -316.113C597.555 -329.18 556.73 -342.72 539.591 -375.729C522.978 -407.705 524.109 -451.371 536.321 -485.51C536.321 -485.51 245.618 -349.836 121.032 -291.691C109.706 -286.405 99.728 -281.748 91.5919 -277.844C75.2759 -270.123 65.7453 -265.462 65.7453 -265.462Z" fill="#326B70"/>
</g>
</g>
<defs>
<linearGradient id="paint0_linear_301_6684" x1="720" y1="0" x2="720" y2="980.426" gradientUnits="userSpaceOnUse">
<stop stop-color="#326B70"/>
<stop offset="1" stop-color="#326B70" stop-opacity="0.22"/>
</linearGradient>
<linearGradient id="paint1_linear_301_6684" x1="1440" y1="-5.77816e-05" x2="42.6424" y2="1037.84" gradientUnits="userSpaceOnUse">
<stop stop-color="#D9EFF1"/>
<stop offset="1" stop-color="#F0F4F4"/>
</linearGradient>
</defs>
</svg>
