<svg width="37" height="36" viewBox="0 0 37 36" fill="none" xmlns="http://www.w3.org/2000/svg" >
    <circle cx="18.7" cy="18" r="18" fill="#F4F4F5"/>
    <path d="M18.5 9.25C19.1094 9.25 19.6953 9.30859 20.2578 9.42578C20.3984 9.44922 20.5742 9.50781 20.7852 9.60156C20.9727 9.71875 21.1367 9.89453 21.2773 10.1289C21.3477 10.2461 21.4062 10.3867 21.4531 10.5508L21.7695 11.8867C21.8164 12.0039 21.8984 12.0977 22.0156 12.168C22.1328 12.2383 22.25 12.2617 22.3672 12.2383L23.7031 11.8516C23.8438 11.8047 23.9844 11.7812 24.125 11.7812C24.4062 11.7812 24.6406 11.8398 24.8281 11.957C25.0391 12.0742 25.1914 12.1914 25.2852 12.3086C26.0586 13.1992 26.6328 14.2188 27.0078 15.3672C27.0781 15.5078 27.1133 15.6836 27.1133 15.8945C27.1367 16.1289 27.0781 16.3633 26.9375 16.5977C26.8438 16.7148 26.75 16.832 26.6562 16.9492L25.6367 17.8984C25.5664 17.9922 25.5312 18.1094 25.5312 18.25C25.5312 18.3906 25.5664 18.5078 25.6367 18.6016L26.6562 19.5508C26.75 19.668 26.8438 19.7852 26.9375 19.9023C27.0547 20.1602 27.1133 20.3945 27.1133 20.6055C27.1133 20.8398 27.0781 21.0156 27.0078 21.1328C26.6328 22.2812 26.0586 23.3008 25.2852 24.1914C25.1914 24.3086 25.0391 24.4258 24.8281 24.543C24.6406 24.6602 24.4062 24.7188 24.125 24.7188C23.9844 24.7188 23.8438 24.6953 23.7031 24.6484L22.3672 24.2617C22.25 24.2383 22.1328 24.2617 22.0156 24.332C21.8984 24.4023 21.8164 24.4961 21.7695 24.6133L21.4531 25.9492C21.4062 26.1133 21.3477 26.2539 21.2773 26.3711C21.1367 26.6055 20.9727 26.7812 20.7852 26.8984C20.5742 26.9922 20.3984 27.0508 20.2578 27.0742C19.6953 27.1914 19.1094 27.25 18.5 27.25C17.8906 27.25 17.3047 27.1914 16.7422 27.0742C16.6016 27.0508 16.4258 26.9922 16.2148 26.8984C16.0273 26.7812 15.8633 26.6055 15.7227 26.3711C15.6523 26.2539 15.5938 26.1133 15.5469 25.9492L15.2305 24.6133C15.1836 24.4961 15.1016 24.4023 14.9844 24.332C14.8672 24.2617 14.75 24.2383 14.6328 24.2617L13.2969 24.6484C13.1562 24.6953 13.0156 24.7188 12.875 24.7188C12.5938 24.7188 12.3594 24.6602 12.1719 24.543C11.9609 24.4258 11.8203 24.3086 11.75 24.1914C10.9531 23.3008 10.3672 22.2812 9.99219 21.1328C9.92188 20.9922 9.88672 20.8164 9.88672 20.6055C9.86328 20.3711 9.92188 20.1367 10.0625 19.9023C10.1562 19.7852 10.25 19.668 10.3438 19.5508L11.3633 18.6016C11.4336 18.5078 11.4688 18.3906 11.4688 18.25C11.4688 18.1094 11.4336 17.9922 11.3633 17.8984L10.3438 16.9492C10.25 16.832 10.1562 16.7148 10.0625 16.5977C9.92188 16.3398 9.86328 16.1055 9.88672 15.8945C9.88672 15.6602 9.92188 15.4844 9.99219 15.3672C10.3672 14.2422 10.9531 13.2227 11.75 12.3086C11.8203 12.1914 11.9609 12.0742 12.1719 11.957C12.3594 11.8398 12.5938 11.7812 12.875 11.7812C13.0156 11.7812 13.1562 11.8047 13.2969 11.8516L14.6328 12.2383C14.75 12.2617 14.8672 12.2383 14.9844 12.168C15.1016 12.0977 15.1836 12.0039 15.2305 11.8867L15.5469 10.5508C15.5938 10.3867 15.6523 10.2461 15.7227 10.1289C15.8633 9.89453 16.0273 9.71875 16.2148 9.60156C16.4258 9.50781 16.6016 9.44922 16.7422 9.42578C17.3047 9.30859 17.8906 9.25 18.5 9.25ZM17.1641 11.043L16.8828 12.3086C16.7188 12.8711 16.3672 13.3047 15.8281 13.6094C15.2891 13.9141 14.7266 13.9961 14.1406 13.8555L12.9453 13.5039C12.3594 14.1836 11.9141 14.957 11.6094 15.8242L12.5234 16.7031C12.9453 17.125 13.1562 17.6406 13.1562 18.25C13.1562 18.8594 12.9453 19.3867 12.5234 19.832L11.6094 20.6758C11.9141 21.543 12.3594 22.3164 12.9453 22.9961L14.1758 22.6445C14.7383 22.4805 15.2891 22.5625 15.8281 22.8906C16.3672 23.1953 16.7188 23.6289 16.8828 24.1914L17.1641 25.457C18.0547 25.5977 18.9453 25.5977 19.8359 25.457L20.1523 24.1914C20.3164 23.6289 20.6562 23.1953 21.1719 22.8906C21.7109 22.5859 22.2734 22.5039 22.8594 22.6445L24.0547 22.9961C24.6406 22.3164 25.0859 21.543 25.3906 20.6758L24.4766 19.7969C24.0547 19.375 23.8438 18.8594 23.8438 18.25C23.8438 17.6406 24.0547 17.1133 24.4766 16.668L25.3906 15.8242C25.0859 14.957 24.6406 14.1836 24.0547 13.5039L22.8594 13.8555C22.2734 14.0195 21.7109 13.9375 21.1719 13.6094C20.6562 13.3047 20.3164 12.8594 20.1523 12.2734L19.8359 11.043C18.9453 10.9023 18.0547 10.9023 17.1641 11.043ZM16.8125 18.25C16.8359 18.8828 17.1172 19.375 17.6562 19.7266C18.2188 20.0078 18.7812 20.0078 19.3438 19.7266C19.8828 19.375 20.1641 18.8828 20.1875 18.25C20.1641 17.6172 19.8828 17.125 19.3438 16.7734C18.7812 16.4922 18.2188 16.4922 17.6562 16.7734C17.1172 17.125 16.8359 17.6172 16.8125 18.25ZM18.5 21.625C17.8906 21.625 17.3281 21.4727 16.8125 21.168C16.2969 20.8633 15.8867 20.4531 15.582 19.9375C15.2773 19.3984 15.125 18.8359 15.125 18.25C15.125 17.6641 15.2773 17.1016 15.582 16.5625C15.8867 16.0469 16.2969 15.6367 16.8125 15.332C17.3281 15.0273 17.8906 14.875 18.5 14.875C19.1094 14.875 19.6719 15.0273 20.1875 15.332C20.7031 15.6367 21.1133 16.0469 21.418 16.5625C21.7227 17.1016 21.875 17.6641 21.875 18.25C21.875 18.8359 21.7227 19.3984 21.418 19.9375C21.1133 20.4531 20.7031 20.8633 20.1875 21.168C19.6719 21.4727 19.1094 21.625 18.5 21.625Z" fill="#5C646C"/>
</svg>