<svg width="19" height="15" viewBox="0 0 19 15" fill="none" xmlns="http://www.w3.org/2000/svg">
    <path d="M10.5476 10.8125C10.5476 11.4961 10.821 12.1523 11.3132 12.6445L13.0085 14.3398C12.8445 14.5859 12.571 14.75 12.2429 14.75H1.87964C1.36011 14.75 0.949951 14.3398 0.949951 13.8203C0.949951 11.1953 3.05542 9.0625 5.68042 9.0625H8.44214C9.20776 9.0625 9.9187 9.25391 10.5476 9.60938V10.8125ZM7.07495 7.75C5.13354 7.75 3.57495 6.19141 3.57495 4.25C3.57495 2.33594 5.13354 0.75 7.07495 0.75C8.98901 0.75 10.575 2.33594 10.575 4.25C10.575 6.19141 8.98901 7.75 7.07495 7.75ZM18.1765 10.7305C18.532 11.0859 18.532 11.6328 18.1765 11.9883L15.6335 14.5039C15.3054 14.8594 14.7585 14.8594 14.4031 14.5039L11.9421 12.043C11.614 11.7148 11.4226 11.2773 11.4226 10.8125V8.625C11.4226 8.16016 11.8328 7.75 12.2976 7.75H14.4851C14.95 7.75 15.3875 7.94141 15.7156 8.26953L18.1765 10.7305ZM13.1726 10.1562C13.5554 10.1562 13.8289 9.88281 13.8289 9.5C13.8289 9.14453 13.5554 8.84375 13.1726 8.84375C12.8171 8.84375 12.5164 9.14453 12.5164 9.5C12.5164 9.88281 12.8171 10.1562 13.1726 10.1562Z" fill="#326B70"/>
</svg>