 <svg width="37" height="36" viewBox="0 0 37 36" fill="none" xmlns="http://www.w3.org/2000/svg" >
    <circle cx="18.7" cy="18" r="18" fill="#F4F4F5"/>
    <path d="M23.5625 25V14.875H20.75C20.4219 14.875 20.1523 14.7695 19.9414 14.5586C19.7305 14.3477 19.625 14.0781 19.625 13.75V10.9375H14C13.6484 10.9609 13.4609 11.1484 13.4375 11.5V25C13.4609 25.3516 13.6484 25.5391 14 25.5625H23C23.3516 25.5391 23.5391 25.3516 23.5625 25ZM11.75 11.5C11.7734 10.8672 11.9961 10.3398 12.418 9.91797C12.8398 9.49609 13.3672 9.27344 14 9.25H19.8359C20.4453 9.25 20.9727 9.47266 21.418 9.91797L24.582 13.082C25.0273 13.5273 25.25 14.0664 25.25 14.6992V25C25.2266 25.6328 25.0039 26.1602 24.582 26.582C24.1602 27.0039 23.6328 27.2266 23 27.25H14C13.3672 27.2266 12.8398 27.0039 12.418 26.582C11.9961 26.1602 11.7734 25.6328 11.75 25V11.5ZM18.5 16.8438C18.9219 16.8672 19.1562 17.1016 19.2031 17.5469V17.8984C19.4609 17.9219 19.707 17.9688 19.9414 18.0391C20.3398 18.1797 20.5156 18.4609 20.4688 18.8828C20.3281 19.2812 20.0352 19.457 19.5898 19.4102C19.2148 19.3164 18.8516 19.2578 18.5 19.2344C18.1953 19.2344 17.9258 19.293 17.6914 19.4102C17.5508 19.5039 17.4922 19.5742 17.5156 19.6211C17.5156 19.6445 17.5625 19.6797 17.6562 19.7266C17.8906 19.8438 18.2188 19.9492 18.6406 20.043C18.6641 20.0664 18.6758 20.0781 18.6758 20.0781H18.7109C19.1328 20.1719 19.5664 20.3242 20.0117 20.5352C20.2227 20.6523 20.4219 20.8281 20.6094 21.0625C20.7734 21.2734 20.8672 21.5547 20.8906 21.9062C20.8438 22.6328 20.5391 23.1367 19.9766 23.418C19.7422 23.5586 19.4844 23.6523 19.2031 23.6992V24.0508C19.1562 24.4727 18.9219 24.707 18.5 24.7539C18.0781 24.707 17.8438 24.4727 17.7969 24.0508V23.6641C17.4688 23.5938 17.1641 23.5117 16.8828 23.418C16.8594 23.418 16.8359 23.4062 16.8125 23.3828C16.7656 23.3828 16.7305 23.3711 16.707 23.3477C16.6602 23.3477 16.625 23.3477 16.6016 23.3477C16.2031 23.1836 16.0508 22.8906 16.1445 22.4688C16.3086 22.0703 16.6016 21.9062 17.0234 21.9766C17.0703 22 17.1289 22.0234 17.1992 22.0469C17.2227 22.0469 17.2461 22.0469 17.2695 22.0469C17.7148 22.2109 18.1367 22.3047 18.5352 22.3281C18.8633 22.3281 19.1211 22.2812 19.3086 22.1875C19.4492 22.0938 19.5078 22.0117 19.4844 21.9414C19.5078 21.918 19.4492 21.8594 19.3086 21.7656C19.0742 21.6484 18.7461 21.5312 18.3242 21.4141H18.2539C17.832 21.3203 17.4219 21.168 17.0234 20.957C16.7891 20.8398 16.5781 20.6758 16.3906 20.4648C16.2266 20.2539 16.1328 19.9727 16.1094 19.6211C16.1094 19.2461 16.2031 18.9414 16.3906 18.707C16.5781 18.4492 16.8008 18.2617 17.0586 18.1445C17.293 18.0273 17.5391 17.9453 17.7969 17.8984V17.5469C17.8438 17.1016 18.0781 16.8672 18.5 16.8438ZM15.125 12.625H17.9375C18.2891 12.6484 18.4766 12.8359 18.5 13.1875C18.4766 13.5391 18.2891 13.7266 17.9375 13.75H15.125C14.7734 13.7266 14.5859 13.5391 14.5625 13.1875C14.5859 12.8359 14.7734 12.6484 15.125 12.625ZM15.125 14.875H17.9375C18.2891 14.8984 18.4766 15.0859 18.5 15.4375C18.4766 15.7891 18.2891 15.9766 17.9375 16H15.125C14.7734 15.9766 14.5859 15.7891 14.5625 15.4375C14.5859 15.0859 14.7734 14.8984 15.125 14.875Z" fill="#5C646C"/>
</svg>