<svg width="37" height="36" viewBox="0 0 37 36" fill="none" xmlns="http://www.w3.org/2000/svg" >
    <circle cx="18.7" cy="18" r="18" fill="#F4F4F5"/>
    <path d="M14.5625 12.625V21.625C14.5859 21.9766 14.7734 22.1641 15.125 22.1875H22.0859C22.2266 22.1875 22.3555 22.1289 22.4727 22.0117L24.5117 19.9727C24.6289 19.8555 24.6875 19.7266 24.6875 19.5859V12.625C24.6641 12.2734 24.4766 12.0859 24.125 12.0625H15.125C14.7734 12.0859 14.5859 12.2734 14.5625 12.625ZM12.875 12.625C12.8984 11.9922 13.1211 11.4648 13.543 11.043C13.9648 10.6211 14.4922 10.3984 15.125 10.375H24.125C24.7578 10.3984 25.2852 10.6211 25.707 11.043C26.1289 11.4648 26.3516 11.9922 26.375 12.625V19.5859C26.375 20.1953 26.1523 20.7227 25.707 21.168L23.668 23.207C23.2227 23.6523 22.6953 23.875 22.0859 23.875H15.125C14.4922 23.8516 13.9648 23.6289 13.543 23.207C13.1211 22.7852 12.8984 22.2578 12.875 21.625V12.625ZM19.0625 13.75H20.1875C20.5391 13.7734 20.7266 13.9609 20.75 14.3125V16H22.4375C22.7891 16.0234 22.9766 16.2109 23 16.5625V17.6875C22.9766 18.0391 22.7891 18.2266 22.4375 18.25H20.75V19.9375C20.7266 20.2891 20.5391 20.4766 20.1875 20.5H19.0625C18.7109 20.4766 18.5234 20.2891 18.5 19.9375V18.25H16.8125C16.4609 18.2266 16.2734 18.0391 16.25 17.6875V16.5625C16.2734 16.2109 16.4609 16.0234 16.8125 16H18.5V14.3125C18.5234 13.9609 18.7109 13.7734 19.0625 13.75ZM19.9062 25.5625C20.4219 25.6094 20.7031 25.8906 20.75 26.4062C20.7031 26.9219 20.4219 27.2031 19.9062 27.25H14.2812C12.9219 27.2266 11.7969 26.7578 10.9062 25.8438C9.99219 24.9531 9.52344 23.8281 9.5 22.4688V14.5938C9.54688 14.0781 9.82812 13.7969 10.3438 13.75C10.8594 13.7969 11.1406 14.0781 11.1875 14.5938V22.4688C11.2109 23.3359 11.5156 24.0625 12.1016 24.6484C12.6875 25.2344 13.4141 25.5391 14.2812 25.5625H19.9062Z" fill="#5C646C"/>
</svg>