<svg width="37" height="36" viewBox="0 0 37 36" fill="none" xmlns="http://www.w3.org/2000/svg" >
    <circle cx="18.7" cy="18" r="18" fill="#F4F4F5"/>
    <path d="M19.0625 9.46094L28.3438 17.3359C28.6953 17.6875 28.7188 18.0859 28.4141 18.5312C28.0625 18.8828 27.6758 18.9062 27.2539 18.6016L26.375 17.8984V24.4375C26.3516 25.2344 26.082 25.9023 25.5664 26.4414C25.0273 26.957 24.3594 27.2266 23.5625 27.25H13.4375C12.6406 27.2266 11.9727 26.957 11.4336 26.4414C10.918 25.9023 10.6484 25.2344 10.625 24.4375V17.8984L9.74609 18.6016C9.32422 18.9062 8.9375 18.8828 8.58594 18.5312C8.28125 18.0859 8.30469 17.6875 8.65625 17.3359L17.9375 9.46094C18.3125 9.17969 18.6875 9.17969 19.0625 9.46094ZM12.3125 24.4375C12.3125 24.7656 12.418 25.0352 12.6289 25.2461C12.8398 25.457 13.1094 25.5625 13.4375 25.5625H15.125V20.2188C15.125 19.8203 15.2656 19.4922 15.5469 19.2344C15.8047 18.9531 16.1328 18.8125 16.5312 18.8125H20.4688C20.8672 18.8125 21.1953 18.9531 21.4531 19.2344C21.7344 19.4922 21.875 19.8203 21.875 20.2188V25.5625H23.5625C23.8906 25.5625 24.1602 25.457 24.3711 25.2461C24.582 25.0352 24.6875 24.7656 24.6875 24.4375V16.457L18.5 11.2188L12.3125 16.457V24.4375ZM16.8125 25.5625H20.1875V20.5H16.8125V25.5625Z" fill="#5C646C"/>
</svg>