<svg width="37" height="36" viewBox="0 0 37 36" fill="none" xmlns="http://www.w3.org/2000/svg" >
    <circle cx="18.7" cy="18" r="18" fill="#F4F4F5"/>
    <path d="M21.3125 13.75C21.2891 12.6953 20.8203 11.8867 19.9062 11.3242C18.9688 10.8086 18.0312 10.8086 17.0938 11.3242C16.1797 11.8867 15.7109 12.6953 15.6875 13.75C15.7109 14.8047 16.1797 15.6133 17.0938 16.1758C18.0312 16.6914 18.9688 16.6914 19.9062 16.1758C20.8203 15.6133 21.2891 14.8047 21.3125 13.75ZM14 13.75C14 12.9297 14.1992 12.1797 14.5977 11.5C14.9961 10.8203 15.5469 10.2695 16.25 9.84766C16.9531 9.44922 17.7031 9.25 18.5 9.25C19.2969 9.25 20.0469 9.44922 20.75 9.84766C21.4531 10.2695 22.0039 10.8203 22.4023 11.5C22.8008 12.1797 23 12.9297 23 13.75C23 14.5703 22.8008 15.3203 22.4023 16C22.0039 16.6797 21.4531 17.2305 20.75 17.6523C20.0469 18.0508 19.2969 18.25 18.5 18.25C17.7031 18.25 16.9531 18.0508 16.25 17.6523C15.5469 17.2305 14.9961 16.6797 14.5977 16C14.1992 15.3203 14 14.5703 14 13.75ZM12.3477 25.5625H24.6523C24.4648 24.4141 23.9609 23.4766 23.1406 22.75C22.2969 22.0234 21.2891 21.6484 20.1172 21.625H16.8828C15.7109 21.6484 14.7148 22.0234 13.8945 22.75C13.0508 23.4766 12.5352 24.4141 12.3477 25.5625ZM10.625 26.1953C10.6719 24.4375 11.2812 22.9609 12.4531 21.7656C13.6484 20.5938 15.125 19.9844 16.8828 19.9375H20.1172C21.875 19.9844 23.3516 20.5938 24.5469 21.7656C25.7188 22.9609 26.3281 24.4375 26.375 26.1953C26.375 26.5 26.2695 26.7461 26.0586 26.9336C25.8711 27.1445 25.625 27.25 25.3203 27.25H11.6797C11.375 27.25 11.1289 27.1445 10.9414 26.9336C10.7305 26.7461 10.625 26.5 10.625 26.1953Z" fill="#5C646C"/>
</svg>